<svg width="23" height="26" viewBox="0 0 23 26" fill="none" xmlns="http://www.w3.org/2000/svg">
<path d="M16.5667 0.940918C20.3342 0.940918 22.432 3.11189 22.432 6.83183V19.4308C22.432 23.2117 20.3342 25.3339 16.5667 25.3339H6.34479C2.63705 25.3339 0.478271 23.2117 0.478271 19.4308V6.83183C0.478271 3.11189 2.63705 0.940918 6.34479 0.940918H16.5667ZM6.67409 17.6989C6.3082 17.6623 5.9545 17.8331 5.75936 18.1502C5.56421 18.4551 5.56421 18.8576 5.75936 19.1747C5.9545 19.4796 6.3082 19.6625 6.67409 19.6138H16.2361C16.7228 19.565 17.0899 19.1491 17.0899 18.6624C17.0899 18.1624 16.7228 17.7477 16.2361 17.6989H6.67409ZM16.2361 12.1361H6.67409C6.14842 12.1361 5.72277 12.5642 5.72277 13.0886C5.72277 13.6131 6.14842 14.04 6.67409 14.04H16.2361C16.7606 14.04 17.1875 13.6131 17.1875 13.0886C17.1875 12.5642 16.7606 12.1361 16.2361 12.1361ZM10.3196 6.61229H6.67409V6.62449C6.14842 6.62449 5.72277 7.05136 5.72277 7.57581C5.72277 8.10026 6.14842 8.52714 6.67409 8.52714H10.3196C10.8453 8.52714 11.2722 8.10026 11.2722 7.5624C11.2722 7.03917 10.8453 6.61229 10.3196 6.61229Z" fill="#5D7285"/>
</svg>
