<svg width="26" height="25" viewBox="0 0 26 25" fill="none" xmlns="http://www.w3.org/2000/svg">
<path d="M11.8363 0.574219C14.8644 0.574219 17.334 3.00147 17.334 5.9898V11.8323H9.88797C9.35434 11.8323 8.9324 12.247 8.9324 12.7715C8.9324 13.2838 9.35434 13.7107 9.88797 13.7107H17.334V19.5409C17.334 22.5293 14.8644 24.9687 11.8115 24.9687H5.76785C2.7274 24.9687 0.257812 22.5415 0.257812 19.5531V6.002C0.257812 3.00147 2.73981 0.574219 5.78026 0.574219H11.8363ZM20.4323 8.56366C20.7982 8.18555 21.3959 8.18555 21.7618 8.55147L25.3234 12.1009C25.5064 12.2838 25.6039 12.5156 25.6039 12.7717C25.6039 13.0157 25.5064 13.2596 25.3234 13.4304L21.7618 16.9798C21.5789 17.1627 21.3349 17.2603 21.1032 17.2603C20.8592 17.2603 20.6153 17.1627 20.4323 16.9798C20.0664 16.6139 20.0664 16.0162 20.4323 15.6503L22.3839 13.7109H17.3342V11.8325H22.3839L20.4323 9.89316C20.0664 9.52725 20.0664 8.92958 20.4323 8.56366Z" fill="white"/>
</svg>
