<svg width="24" height="25" viewBox="0 0 24 25" fill="none" xmlns="http://www.w3.org/2000/svg">
<path fill-rule="evenodd" clip-rule="evenodd" d="M19 8.27344H18V3.27344H6V8.27344H5C3.34 8.27344 2 9.61344 2 11.2734V17.2734H6V21.2734H18V17.2734H22V11.2734C22 9.61344 20.66 8.27344 19 8.27344ZM8 5.27344H16V8.27344H8V5.27344ZM8 19.2734H16V15.2734H8V19.2734ZM18 15.2734V13.2734H6V15.2734H4V11.2734C4 10.7234 4.45 10.2734 5 10.2734H19C19.55 10.2734 20 10.7234 20 11.2734V15.2734H18ZM17 11.7734C17 11.2212 17.4477 10.7734 18 10.7734C18.5523 10.7734 19 11.2212 19 11.7734C19 12.3257 18.5523 12.7734 18 12.7734C17.4477 12.7734 17 12.3257 17 11.7734Z" fill="#5D7285"/>
</svg>
