<svg width="24" height="25" viewBox="0 0 24 25" fill="none" xmlns="http://www.w3.org/2000/svg">
<path fill-rule="evenodd" clip-rule="evenodd" d="M14.965 14.5283H15.755L20.745 19.5283L19.255 21.0183L14.255 16.0283V15.2383L13.985 14.9583C12.845 15.9383 11.365 16.5283 9.755 16.5283C6.165 16.5283 3.255 13.6183 3.255 10.0283C3.255 6.43832 6.165 3.52832 9.755 3.52832C13.345 3.52832 16.255 6.43832 16.255 10.0283C16.255 11.6383 15.665 13.1183 14.685 14.2583L14.965 14.5283ZM5.255 10.0283C5.255 12.5183 7.26501 14.5283 9.755 14.5283C12.245 14.5283 14.255 12.5183 14.255 10.0283C14.255 7.53832 12.245 5.52832 9.755 5.52832C7.26501 5.52832 5.255 7.53832 5.255 10.0283Z" fill="#5D7285"/>
</svg>
