<svg width="24" height="25" viewBox="0 0 24 25" fill="none" xmlns="http://www.w3.org/2000/svg">
<path d="M13.1032 0.485596C14.0256 0.485596 14.8608 0.99788 15.322 1.75411C15.5464 2.12003 15.6959 2.57133 15.6585 3.04702C15.6336 3.41294 15.7458 3.77885 15.9452 4.12038C16.581 5.15714 17.9895 5.54746 19.0864 4.96199C20.3205 4.25455 21.8786 4.68145 22.5891 5.88898L23.4243 7.32826C24.1473 8.53578 23.7484 10.0848 22.5019 10.7801C21.4423 11.4021 21.0684 12.7804 21.7041 13.8294C21.9035 14.1587 22.1279 14.4393 22.4769 14.61C22.9132 14.8418 23.2498 15.2077 23.4866 15.5736C23.9478 16.3298 23.9104 17.2568 23.4617 18.074L22.5891 19.5377C22.1279 20.3183 21.2678 20.8062 20.3828 20.8062C19.9465 20.8062 19.4604 20.6842 19.0615 20.4403C18.7374 20.233 18.3635 20.1598 17.9646 20.1598C16.7305 20.1598 15.6959 21.1721 15.6585 22.3797C15.6585 23.7824 14.5118 24.8801 13.0783 24.8801H11.383C9.93707 24.8801 8.79029 23.7824 8.79029 22.3797C8.76536 21.1721 7.73075 20.1598 6.49671 20.1598C6.08536 20.1598 5.71141 20.233 5.39979 20.4403C5.0009 20.6842 4.5023 20.8062 4.07849 20.8062C3.181 20.8062 2.32091 20.3183 1.8597 19.5377L0.999615 18.074C0.538407 17.2812 0.513477 16.3298 0.974684 15.5736C1.17413 15.2077 1.54808 14.8418 1.97189 14.61C2.32091 14.4393 2.54528 14.1587 2.75719 13.8294C3.38044 12.7804 3.00649 11.4021 1.94696 10.7801C0.712918 10.0848 0.314036 8.53578 1.02454 7.32826L1.8597 5.88898C2.58268 4.68145 4.12835 4.25455 5.37486 4.96199C6.45932 5.54746 7.86787 5.15714 8.50359 4.12038C8.70303 3.77885 8.81522 3.41294 8.79029 3.04702C8.76536 2.57133 8.90247 2.12003 9.13931 1.75411C9.60052 0.99788 10.4357 0.50999 11.3456 0.485596H13.1032ZM12.2431 9.24322C10.2861 9.24322 8.70303 10.7801 8.70303 12.695C8.70303 14.61 10.2861 16.1347 12.2431 16.1347C14.2001 16.1347 15.7458 14.61 15.7458 12.695C15.7458 10.7801 14.2001 9.24322 12.2431 9.24322Z" fill="#5D7285"/>
</svg>
