<svg width="520" height="222" viewBox="0 0 520 222" fill="none" xmlns="http://www.w3.org/2000/svg">
<path d="M414.939 110.233C426.515 133.745 465.573 158.182 481.127 168.311M400.109 101.551C438.154 134.815 457.615 155.047 465.211 160.714M385.278 93.2315C398.879 120.723 435.067 137.323 440.975 143.352M374.426 88.529C400.109 119.427 421.08 122.371 461.232 141.543M370.447 78.8946C381.299 99.513 391.716 93.2315 400.109 65.3785M358.872 75.1452C367.01 95.757 385.278 82.7361 385.278 59.9524M349.105 75.1452C361.918 92.0541 370.447 75.1452 370.447 53.2845M353.808 49.4626C358.872 80.2093 346.875 88.529 334.998 67.5489M340.794 47.0479C349.105 76.7795 334.998 82.3339 324.146 67.5489M327.73 40.9718C334.869 79.5549 315.465 70.9937 315.465 65.3785M315.465 36.8356C323.06 81.1985 307.148 67.5489 297.74 65.3785M303.122 35.6555C308.135 72.4158 303.122 69.1423 288.697 65.3785M243.725 36.8356C246.396 69.5958 262.957 74.4647 282.49 63.251M225.697 36.8356C231.706 81.6899 249.274 78.9159 272.063 61.1913M205.682 40.0685C225.697 95.2059 240.91 77.5401 261.507 59.9524M171.041 45.8788C179.743 77.4563 193.788 71.7961 210.399 71.7961M235.885 59.9524C223.699 70.6013 218.629 71.7961 210.399 71.7961M136.947 61.1913C151.671 83.5248 166.529 97.8846 210.399 71.7961" stroke="#636464" stroke-width="2" stroke-linecap="round" stroke-linejoin="round"/>
<path d="M292.337 35.6555C299.021 61.5401 291.1 71.688 283.391 63.3666C282.104 71.4196 286.109 65.9858 279.73 35.6555M259.83 37.9279C261.653 56.1063 270.502 72.3823 282.104 62.697" stroke="#636464" stroke-width="2" stroke-linecap="round" stroke-linejoin="round"/>
<path d="M105.519 73.4275C114.924 94.0424 146.749 101.699 168.966 86.7196M42 99.38C112.898 127.595 129.668 107.884 137.325 99.38" stroke="#636464" stroke-width="2" stroke-linecap="round" stroke-linejoin="round"/>
<path d="M454.197 154.823C437.576 168.887 430.758 183.057 429.426 188.384M471.777 154.823C439.814 130.052 388.673 70.1219 285.593 70.1219C182.513 70.1219 95.4147 134.047 45.8724 150.029M412.645 188.384C357.51 199.571 307.967 209.959 258.425 209.16C208.883 208.361 139.364 187.585 113.793 143.636M85.0268 159.618C113.793 177.996 139.363 226.74 307.967 217.95M471.777 126.057C429.426 62.1312 401.458 3 292.785 3C184.111 3 116.191 44.5516 66.6482 94.0939M412.645 98.8884C362.304 58.9349 300.776 54.1404 272.009 54.1404C243.243 54.1404 209.682 60.533 161.737 79.7107M468.694 169.609C472.948 173.032 476.548 181.776 471.777 188.384C467.006 194.992 458.735 195.544 445.554 188.384" stroke="#636464" stroke-width="2" stroke-linecap="round" stroke-linejoin="round"/>
<path d="M338.851 80.4058C346.328 92.0299 350.666 105.865 350.666 120.714C350.666 161.917 317.264 195.32 276.06 195.32C234.856 195.32 201.454 161.917 201.454 120.714C201.454 107.941 204.664 95.9171 210.321 85.4061" stroke="#636464" stroke-width="2" stroke-linecap="round" stroke-linejoin="round"/>
<circle cx="22.4296" cy="22.4296" r="21.4296" transform="matrix(-1 0 0 1 301.78 98.2808)" stroke="#636464" stroke-width="2" stroke-linecap="round" stroke-linejoin="round"/>
<path d="M294.906 144.62L301.888 161.012M304.013 138.549L311.298 146.442M254.838 134.3L230.857 144.62M250.285 122.461H236.625M254.838 110.319L236.625 100.606M307.959 106.677L330.118 94.2312" stroke="#636464" stroke-width="2" stroke-linecap="round" stroke-linejoin="round"/>
</svg>
