<svg width="520" height="653" viewBox="0 0 520 653" fill="none" xmlns="http://www.w3.org/2000/svg">
<path d="M265.264 0.170723C274.328 -0.333157 280.036 0.158853 286.267 3.27424C287.238 3.75999 288.016 4.60213 288.647 5.61115C289.281 6.62445 289.804 7.86579 290.241 9.24104C290.574 10.2882 290.861 11.4329 291.112 12.6434L291.267 12.7303C299.285 17.4008 303.464 24.5157 305.635 30.9051C307.873 37.4912 308 43.3657 308 45.1639C308 46.9671 307.493 52.4222 306.872 60.1815C306.248 67.9879 305.498 78.2244 304.999 89.7069C304.5 101.189 304.375 112.423 304.25 122.177C304.125 131.91 304 140.207 303.496 145.755C302.955 151.708 302.705 170.27 302.341 188.933C302.159 198.246 301.948 207.566 301.658 215.31C301.369 223.027 300.999 229.252 300.486 232.328C298.694 243.085 296.711 259.867 301.67 294.951C306.286 278.016 319.143 233.482 321.365 226.371C323.869 218.358 331.83 190.468 332.821 174.606C333.82 158.63 335.823 136.526 338.353 126.914C340.825 117.517 343.321 93.6105 344.322 80.5916C344.824 74.0652 345.834 67.5397 348.289 62.3065C350.707 57.1532 354.551 53.2129 360.659 51.7918C362.205 48.1861 364.195 46.0011 366.809 44.7459C369.897 43.2626 373.706 43.1688 378.16 43.1688H378.189L378.219 43.1707C382.442 43.4191 386.788 43.6711 390.327 44.5076C393.828 45.335 396.895 46.8151 398.088 49.7977C398.413 50.6111 398.708 51.6683 398.976 52.911L399.627 53.4041C406.93 59.1088 411.303 67.9901 412.308 74.5164C412.821 77.8524 412.944 83.0503 412.944 87.6688C412.944 89.9897 412.913 92.1838 412.882 93.952C412.85 95.7315 412.819 97.0555 412.819 97.6688C412.819 100.159 412.32 135.202 411.815 141.252C411.564 144.274 410.812 151.167 409.873 158.177C408.938 165.161 407.805 172.36 406.781 175.943C404.8 182.877 401.308 201.823 400.311 209.301C399.311 216.797 398.314 225.775 395.312 249.793C393.807 261.83 391.8 271.743 390.178 280.538C388.553 289.349 387.319 297.019 387.319 304.669C387.319 320.161 387.321 332.567 391.296 350.452C395.282 368.391 404.762 396.837 405.268 398.352C405.7 399.648 409.816 411.27 410.687 426.603C417.725 420.218 422.295 414.902 425.69 408.874C429.408 402.274 431.758 394.761 434.347 383.936C437.073 372.535 437.194 364.762 437.885 355.346C438.576 345.915 439.836 334.971 444.857 317.394C449.879 299.817 455.302 289.437 460.475 282.804C465.603 276.227 470.455 273.382 474.193 270.914C476.4 268.241 479.755 267.909 484.772 267.67C495.101 267.178 506.713 267.621 514.994 273.081L515.386 273.345L515.813 273.638L515.819 274.157C515.986 288.663 515.521 323.231 512.309 345.313C508.295 372.909 498.314 429.773 495.811 448.8C493.302 467.868 483.274 509.97 479.289 525.911C472.736 552.122 457.373 581.511 422.47 611.429C405.049 626.36 392.617 642.781 388.671 649.193C388.381 649.663 387.765 649.81 387.295 649.52C386.825 649.231 386.679 648.615 386.968 648.144C391.022 641.556 403.59 624.978 421.169 609.91C455.773 580.249 470.902 551.215 477.35 525.427C481.342 509.456 491.337 467.471 493.828 448.539C496.325 429.566 506.344 372.43 510.33 345.025C510.998 340.435 511.544 335.296 511.992 329.906C511.838 330.047 511.641 330.142 511.422 330.164L511.319 330.169L511.118 330.162C510.597 330.132 509.722 330.001 508.686 329.836C507.43 329.636 505.898 329.378 504.101 329.095C500.544 328.533 496.207 327.914 492.257 327.667C488.335 327.422 483.486 328.036 479.001 328.292C476.802 328.417 474.693 328.454 472.924 328.222C471.192 327.996 469.561 327.487 468.561 326.32C468.044 325.717 467.697 324.885 467.453 323.963C467.205 323.025 467.04 321.904 466.939 320.647C466.739 318.134 466.789 314.97 467.009 311.42C467.449 304.313 468.579 295.528 469.83 287.023C470.46 282.74 471.001 279.426 471.63 276.873C471.837 276.034 472.055 275.265 472.295 274.561C469.195 276.656 465.714 279.338 462.052 284.034C457.087 290.401 451.759 300.521 446.781 317.943C441.803 335.366 440.562 346.173 439.879 355.492C439.194 364.825 439.066 372.802 436.292 384.401C433.694 395.264 431.294 403.002 427.434 409.855C423.697 416.489 418.622 422.232 410.802 429.187C410.858 430.983 410.869 432.822 410.819 434.695C410.418 449.95 408.312 467.127 407.309 473.817C407.227 474.363 406.717 474.74 406.171 474.658C405.625 474.576 405.248 474.066 405.33 473.52C406.327 466.877 408.421 449.787 408.819 434.642C408.86 433.081 408.86 431.544 408.825 430.037C408.731 429.983 408.644 429.915 408.568 429.829C408.204 429.414 408.244 428.782 408.659 428.418C408.696 428.386 408.731 428.353 408.768 428.321C408.126 412.489 403.81 400.301 403.371 398.985C402.875 397.497 393.356 368.946 389.343 350.886C385.317 332.771 385.319 320.176 385.319 304.669C385.319 296.819 386.586 288.989 388.211 280.175C389.839 271.345 391.832 261.508 393.327 249.545C396.325 225.563 397.328 216.54 398.328 209.037C399.331 201.514 402.838 182.461 404.857 175.394C405.834 171.977 406.951 164.927 407.891 157.911C408.827 150.921 409.575 144.064 409.823 141.086C410.319 135.135 410.819 100.179 410.819 97.6688C410.819 97.032 410.851 95.6685 410.882 93.9168C410.913 92.1537 410.944 89.9727 410.944 87.6688C410.944 83.0374 410.818 77.9852 410.331 74.8211C409.449 69.0892 405.71 61.2718 399.513 55.9022C399.86 58.194 400.139 60.8289 400.345 63.5946C400.785 69.5046 400.911 76.1696 400.659 81.7137C400.406 87.2818 399.517 90.8254 398.294 93.1365C397.042 95.5018 395.466 96.5235 394.031 97.0975C393.206 97.4275 392.252 97.4832 391.3 97.4158C390.337 97.3476 389.291 97.1461 388.236 96.8904C387.18 96.6342 386.08 96.3154 385.013 96.0037C383.936 95.6894 382.894 95.3827 381.917 95.1385C378.084 94.1804 373.199 94.282 369.771 94.6629C368.69 94.7829 367.726 94.9678 366.812 95.1453C365.913 95.3198 365.028 95.4948 364.183 95.5672C362.405 95.7195 360.749 95.419 359.009 93.9276C358.36 93.3711 357.914 92.4691 357.585 91.4822C357.245 90.4621 356.982 89.2025 356.786 87.7821C356.394 84.9374 356.253 81.3328 356.348 77.4569C356.536 69.7154 357.668 60.7371 359.707 54.3641C359.735 54.2761 359.764 54.1891 359.793 54.1024C355.159 55.582 352.13 58.8287 350.1 63.1561C347.805 68.0477 346.814 74.2725 346.316 80.7459C345.318 93.727 342.813 117.82 340.286 127.424C337.816 136.811 335.819 158.708 334.817 174.731C333.809 190.869 325.77 218.979 323.273 226.967C320.812 234.842 305.237 288.863 302.404 299.957C302.432 300.141 302.46 300.326 302.488 300.512C304.932 316.398 306.64 326.35 307.694 332.349C308.22 335.343 308.586 337.37 308.799 338.65C308.905 339.287 308.977 339.766 309.012 340.098C309.028 340.258 309.041 340.426 309.035 340.575C309.033 340.645 309.024 340.764 308.987 340.896C308.964 340.98 308.853 341.355 308.447 341.558C307.953 341.805 307.352 341.605 307.105 341.111C306.994 340.887 306.974 340.641 307.031 340.416C307.029 340.385 307.027 340.348 307.022 340.304C306.995 340.04 306.932 339.615 306.826 338.978C306.616 337.71 306.254 335.707 305.725 332.696C304.668 326.685 302.958 316.719 300.512 300.816C300.508 300.791 300.504 300.765 300.5 300.739C300.341 300.511 300.277 300.218 300.35 299.927C300.356 299.903 300.361 299.879 300.367 299.855C294.533 261.42 296.607 243.438 298.514 232C299.001 229.075 299.37 222.987 299.66 215.236C299.95 207.512 300.159 198.206 300.341 188.894C300.704 170.308 300.954 151.62 301.504 145.573C302 140.121 302.125 131.917 302.25 122.151C302.375 112.405 302.5 101.139 303.001 89.6209C303.502 78.104 304.252 67.8396 304.878 60.0213C305.507 52.1561 306 46.8606 306 45.1639C306 43.4614 305.877 37.8356 303.74 31.5477C301.799 25.8354 298.214 19.625 291.586 15.2791C291.771 16.4691 291.931 17.6965 292.063 18.9373C292.82 25.9981 292.819 33.675 292.819 37.6697C292.819 41.6899 292.57 46.6572 291.668 50.5213C291.22 52.4406 290.588 54.1964 289.666 55.4256C289.198 56.0497 288.627 56.5753 287.933 56.8973C287.225 57.2252 286.445 57.3146 285.623 57.1502C280.683 56.1622 276.749 55.6688 270.319 55.6688C267.155 55.6688 264.373 56.1537 261.514 56.535C258.68 56.9129 255.808 57.1814 252.655 56.6561C250.796 56.3462 249.409 55.2088 248.42 53.4783C247.452 51.7836 246.835 49.479 246.453 46.6795C245.689 41.0745 245.821 33.1104 246.32 23.119C246.515 19.2175 246.898 15.9711 247.484 13.2713C240.775 20.097 235.142 30.4818 233.817 51.2322C233.07 62.9359 233.194 79.1473 233.444 93.4637C233.693 107.723 234.071 120.178 233.817 124.231C233.317 132.236 232.814 137.303 231.796 141.886C231.315 144.049 230.818 149.219 230.441 154.49C230.067 159.737 229.819 164.957 229.819 167.169C229.819 169.473 229.063 179.159 228.253 188.753C227.441 198.374 226.565 208.013 226.313 210.279C225.813 214.785 222.816 243.758 222.317 252.227C222.067 256.481 220.692 278.235 219.317 299.359C219.149 301.945 218.978 304.521 218.812 307.055C218.825 307.175 218.817 307.294 218.788 307.409C218.284 315.096 217.802 322.375 217.396 328.315C216.851 336.265 216.441 341.887 216.31 342.81C216.231 343.357 215.724 343.737 215.178 343.659C214.631 343.581 214.251 343.074 214.329 342.527C214.447 341.7 214.85 336.197 215.399 328.179C215.806 322.245 216.287 314.973 216.791 307.293L213.813 299.835C210.297 291.021 205.888 279.934 204.386 276.028C203.101 272.688 201.462 265.858 200.026 258.742C198.586 251.603 197.33 244.068 196.825 239.273C195.828 229.799 193.969 215.344 189.846 197.899C183.323 170.302 186.237 159.468 184.821 138.235C184.325 130.795 182.712 121.482 181.082 111.39C179.457 101.329 177.823 90.5292 177.32 80.2176C176.572 64.88 171.152 52.8382 160.015 45.3992C161.3 50.1644 162.863 57.5178 163.688 64.5799C164.253 69.4236 164.482 74.2067 164.015 77.9627C163.781 79.838 163.366 81.5232 162.688 82.8465C162.003 84.1806 161.005 85.2274 159.594 85.6307C155.185 86.8903 151.523 86.7291 147.396 86.785C143.264 86.8409 138.486 87.103 131.602 89.1278C130.154 89.5535 128.582 89.5968 127.034 89.0584C125.485 88.5196 124.033 87.4235 122.783 85.6912C120.307 82.2599 118.571 76.2657 118.319 66.6951C118.02 55.3184 117.89 51.2568 118.185 48.45C113.534 52.5413 110.572 56.2963 108.811 60.7254C106.829 65.7099 106.32 71.6611 106.817 80.1102C107.315 88.574 108.186 95.164 109 102.115C109.814 109.066 110.568 116.35 110.819 126.143C111.068 135.841 112.187 146.05 113.311 154.727C114.428 163.356 115.564 170.561 115.816 174.097C116.317 181.107 119.815 224.074 120.811 231.537C121.305 235.243 123.416 245.053 125.487 255.283C127.543 265.437 129.564 276.026 129.818 281.119C130.254 289.833 131.46 316.216 130.748 332.8C130.856 333.071 130.838 333.371 130.709 333.624C130.61 335.69 130.482 337.591 130.314 339.268C129.115 351.263 128.142 356.997 127.789 358.411L126.819 358.169L125.849 357.927C126.162 356.673 127.124 351.074 128.324 339.069C128.494 337.367 128.623 335.429 128.722 333.318L128.21 332.537C124.221 326.347 118.723 316.388 113.689 307.082C108.297 297.111 103.448 287.912 101.468 284.693C101.041 283.999 100.416 282.652 99.7158 281.014C99.0054 279.353 98.1894 277.325 97.376 275.223C95.7523 271.028 94.1229 266.494 93.3613 263.956C91.87 258.985 83.3572 230.941 82.3496 226.911C81.8589 224.948 78.7555 215.517 75.0528 203.719C71.365 191.968 67.1074 177.942 64.3496 166.911C61.6113 155.958 58.7778 149.496 55.4092 145.225C52.5939 141.656 49.3561 139.555 45.2998 137.65C48.3325 143.141 50.5886 149.718 51.959 156.018C52.9015 160.352 53.4332 164.589 53.5049 168.298C53.5762 171.983 53.1952 175.238 52.2432 177.55C51.6872 178.899 50.3102 179.622 48.8799 180.052C47.4046 180.495 45.5687 180.718 43.6631 180.858C41.7559 180.998 39.678 181.061 37.751 181.156C35.7975 181.253 33.9833 181.382 32.4981 181.652C29.902 182.124 27.5356 183.304 25.1738 184.389C22.9069 185.431 20.5221 186.452 18.1944 186.161C16.8913 185.998 15.7577 185.274 14.7891 184.254C13.8216 183.235 12.9628 181.865 12.1983 180.274C10.6686 177.091 9.43007 172.844 8.46486 168.249C7.63593 164.302 7.00178 160.056 6.55959 155.934C5.57517 163.769 6.03915 172.134 6.80959 177.527C7.30651 181.006 9.29994 191.974 11.3662 203.682C13.4268 215.359 15.5585 227.766 16.3125 234.05C17.0477 240.176 20.1351 250.204 23.2637 259.151C26.3896 268.091 29.4959 275.785 30.2139 277.222C30.6248 278.043 31.523 280.461 32.6387 283.669C33.7669 286.912 35.1452 291.046 36.5225 295.365C39.2673 303.974 42.0417 313.421 42.8057 318.005C43.5282 322.34 45.4601 326.463 47.7813 331.231C50.0882 335.97 52.7489 341.289 54.7754 347.875C58.7874 360.914 63.807 383.485 64.8154 394.578C65.8187 405.614 67.3194 445.627 67.3194 452.669C67.3194 459.092 68.9747 475.527 71.2666 493.039C73.5566 510.536 76.4661 528.992 78.9531 539.437C83.9472 560.412 90.9289 584.725 93.4365 592.875C94.4205 596.072 99.7283 609.258 105.016 622.421C107.651 628.982 110.273 635.518 112.33 640.757C114.246 645.636 115.699 649.459 116.197 651.105L116.284 651.406L116.306 651.506C116.389 652.006 116.081 652.497 115.582 652.634C115.083 652.77 114.569 652.502 114.387 652.029L114.355 651.931L114.17 651.323C113.623 649.633 112.277 646.092 110.469 641.487C108.415 636.257 105.796 629.73 103.159 623.167C97.9024 610.08 92.5417 596.766 91.5254 593.463C89.0077 585.28 82.0138 560.925 77.0078 539.9C74.4949 529.346 71.5739 510.801 69.2832 493.299C66.9945 475.811 65.3194 459.245 65.3194 452.669C65.3194 445.675 63.82 405.724 62.8233 394.76C61.8317 383.852 56.8513 361.424 52.8633 348.463C50.8898 342.049 48.3004 336.868 45.9824 332.106C43.6788 327.374 41.6105 322.998 40.833 318.333C40.097 313.917 37.3713 304.613 34.6162 295.972C33.2435 291.667 31.8718 287.55 30.75 284.325C29.6158 281.064 28.764 278.794 28.4248 278.116C27.6428 276.552 24.4991 268.746 21.375 259.811C18.2536 250.884 15.091 240.661 14.3262 234.288C13.5802 228.072 11.4619 215.728 9.39748 204.03C7.33881 192.364 5.33225 181.332 4.82912 177.81C3.81994 170.746 3.30464 158.596 5.85256 148.914C5.87803 148.817 5.91623 148.727 5.96584 148.646C5.81689 145.902 5.76804 143.357 5.81935 141.169H5.81838C5.81838 140.064 6.42479 138.976 7.25588 138.012C8.10881 137.022 9.31194 136.032 10.7578 135.106C13.6534 133.253 17.6464 131.584 22.1231 130.688C23.9621 130.32 28.1598 129.943 32.1377 129.969C34.1312 129.981 36.1143 130.095 37.7451 130.374C38.5596 130.513 39.3177 130.699 39.957 130.948C40.5782 131.19 41.1898 131.532 41.5996 132.044L42.0576 132.631C42.5581 133.286 43.0424 133.974 43.5127 134.687C43.5476 134.694 43.5826 134.703 43.6172 134.714L43.7129 134.75L44.6953 135.177C49.5492 137.321 53.5521 139.642 56.9795 143.987C60.6108 148.591 63.5275 155.38 66.2891 166.427C69.0312 177.395 73.2738 191.37 76.961 203.119C80.633 214.82 83.7796 224.389 84.2891 226.427C85.2819 230.398 93.7685 258.352 95.2774 263.382C96.0159 265.843 97.622 270.318 99.2412 274.502C100.049 276.59 100.856 278.595 101.555 280.228C102.263 281.886 102.834 283.097 103.171 283.644C105.19 286.926 110.092 296.227 115.449 306.131C120.065 314.664 125.028 323.663 128.852 329.807C129.32 313.343 128.234 289.495 127.82 281.219C127.575 276.312 125.596 265.901 123.526 255.68C121.473 245.536 119.334 235.595 118.828 231.801C117.823 224.263 114.321 181.23 113.821 174.24C113.574 170.777 112.46 163.732 111.327 154.985C110.201 146.287 109.071 135.996 108.819 126.194C108.57 116.487 107.825 109.271 107.014 102.347C106.203 95.4236 105.323 88.7634 104.821 80.2274C104.318 71.6767 104.809 65.3776 106.952 59.9871C109.102 54.58 112.868 50.2014 118.683 45.3983C118.703 45.3814 118.724 45.3654 118.745 45.3504C118.779 45.2123 118.813 45.0711 118.849 44.9266C119.433 42.5911 121.656 39.7827 125.022 37.5819C128.429 35.3539 133.119 33.6688 138.819 33.6688C144.286 33.6688 148.567 33.786 151.799 34.7752C153.441 35.278 154.849 36.0145 156.022 37.0985C157.194 38.1825 158.083 39.5708 158.752 41.3094C158.88 41.6429 159.018 42.0454 159.168 42.5076L159.44 42.6688C172.389 50.4364 178.512 63.599 179.318 80.1199C179.815 90.3082 181.432 101.009 183.057 111.072C184.677 121.105 186.313 130.543 186.817 138.102C188.262 159.774 185.316 170.035 191.793 197.438C195.942 214.993 197.811 229.539 198.813 239.064C199.309 243.769 200.553 251.234 201.987 258.346C203.427 265.479 205.038 272.149 206.253 275.309C207.751 279.204 212.155 290.279 215.67 299.091L217.096 302.661C217.17 301.521 217.247 300.376 217.321 299.229C218.696 278.104 220.071 256.357 220.321 252.11C220.823 243.58 223.826 214.553 224.325 210.058C224.573 207.824 225.448 198.213 226.261 188.585C227.076 178.929 227.819 169.364 227.819 167.169C227.819 164.881 228.072 159.601 228.447 154.347C228.821 149.119 229.324 143.789 229.843 141.452C230.824 137.034 231.322 132.102 231.821 124.106C232.068 120.159 231.695 107.864 231.444 93.4988C231.194 79.1904 231.068 62.9016 231.821 51.1053C233.329 27.48 240.373 16.706 248.562 9.50373C249.407 7.23047 250.491 5.49973 251.835 4.18537C255.13 0.962178 259.773 0.475963 265.264 0.170723ZM258.353 400.17C258.904 400.188 259.337 400.65 259.318 401.202C258.569 423.441 257.919 457.824 258.406 488.69C258.65 504.125 259.178 518.666 260.118 530.365C260.588 536.215 261.16 541.341 261.848 545.505C262.496 549.43 263.237 552.432 264.061 554.374L264.227 554.748L264.265 554.844C264.43 555.322 264.21 555.858 263.74 556.076C263.27 556.294 262.718 556.115 262.46 555.68L262.412 555.59L262.225 555.167C261.298 552.986 260.527 549.784 259.874 545.831C259.173 541.591 258.596 536.405 258.124 530.525C257.179 518.765 256.651 504.175 256.407 488.722C255.919 457.814 256.57 423.397 257.32 401.136C257.339 400.584 257.801 400.151 258.353 400.17ZM195.208 439.175C195.723 439.117 196.19 439.461 196.297 439.957L196.313 440.057L196.609 442.654C198.167 456.042 200.858 475.373 204.227 492.892C206.024 502.238 208.01 511.05 210.115 518.162C211.168 521.718 212.247 524.834 213.339 527.371C214.369 529.764 215.388 531.585 216.372 532.776L216.568 533.007L216.632 533.086C216.928 533.497 216.869 534.075 216.481 534.418C216.094 534.761 215.514 534.748 215.142 534.404L215.07 534.331L214.836 534.057C213.667 532.645 212.559 530.617 211.502 528.161C210.368 525.526 209.264 522.329 208.198 518.729C206.066 511.528 204.066 502.645 202.263 493.27C198.882 475.689 196.185 456.306 194.623 442.883L194.325 440.28L194.319 440.178C194.314 439.671 194.694 439.232 195.208 439.175ZM127.789 358.411C127.655 358.947 127.113 359.272 126.577 359.138C126.042 359.005 125.715 358.462 125.849 357.927L127.789 358.411ZM513.823 274.706C506.144 269.683 495.18 269.177 484.867 269.668C479.558 269.921 477.201 270.324 475.653 272.288C474.833 273.33 474.177 274.895 473.571 277.351C472.968 279.799 472.439 283.024 471.809 287.314C470.559 295.809 469.44 304.525 469.005 311.543C468.787 315.055 468.744 318.111 468.934 320.488C469.029 321.676 469.18 322.669 469.387 323.451C469.598 324.249 469.846 324.746 470.079 325.018C470.579 325.601 471.573 326.029 473.184 326.24C474.758 326.446 476.712 326.42 478.888 326.296C483.153 326.052 488.304 325.416 492.382 325.671C496.431 325.924 500.845 326.556 504.413 327.119C506.178 327.398 507.803 327.671 509 327.861C509.951 328.013 510.626 328.11 511.02 328.149L511.319 328.169L511.422 328.174C511.698 328.202 511.939 328.343 512.103 328.549C513.671 308.814 513.938 286.096 513.823 274.706ZM345.878 229.171L346.681 229.222C362.89 230.369 371.818 236.898 374.303 239.245L374.526 239.462L374.595 239.538C374.915 239.931 374.892 240.51 374.526 240.876C374.16 241.242 373.581 241.264 373.188 240.944L373.112 240.876L372.92 240.689C370.756 238.649 362.261 232.33 346.54 231.218L345.761 231.167L345.659 231.156C345.159 231.075 344.791 230.627 344.821 230.11C344.852 229.593 345.269 229.191 345.775 229.17L345.878 229.171ZM240.058 210.704C258.837 205.618 272.613 208.297 277.78 210.552L278.253 210.767L278.343 210.817C278.775 211.082 278.945 211.636 278.721 212.102C278.496 212.569 277.956 212.782 277.48 212.609L277.386 212.57L276.961 212.376C272.291 210.345 259.003 207.645 240.581 212.634C240.048 212.778 239.499 212.463 239.355 211.93C239.21 211.398 239.525 210.848 240.058 210.704ZM32.125 131.969C28.2285 131.944 24.1758 132.317 22.5147 132.649C18.2655 133.499 14.5076 135.08 11.835 136.791C10.4971 137.647 9.46017 138.517 8.77053 139.317C8.05934 140.142 7.81838 140.774 7.81838 141.169V141.192C7.65359 148.114 8.52176 158.788 10.4229 167.839C11.3742 172.368 12.5725 176.434 14.001 179.407C14.7155 180.894 15.4673 182.064 16.2393 182.877C17.0097 183.688 17.746 184.089 18.4424 184.177C20.1145 184.386 21.9811 183.656 24.3389 182.573C26.6018 181.533 29.2362 180.213 32.1397 179.685C33.7654 179.39 35.6949 179.255 37.6524 179.158C39.6366 179.06 41.6393 179.001 43.5166 178.863C45.3951 178.725 47.0494 178.513 48.3047 178.136C49.6047 177.745 50.2003 177.259 50.3945 176.788C51.1925 174.85 51.5741 171.917 51.5049 168.337C51.4361 164.78 50.9247 160.673 50.0049 156.444C48.1602 147.963 44.7058 139.128 40.0381 133.294C39.9479 133.181 39.7152 133.001 39.2295 132.811C38.7616 132.629 38.148 132.472 37.4082 132.346C35.9299 132.093 34.0686 131.981 32.125 131.969ZM135.176 148.903C145.146 140.528 154.175 141.657 157.97 143.612L158.32 143.804L158.406 143.859C158.817 144.156 158.944 144.722 158.685 145.17C158.425 145.618 157.871 145.789 157.409 145.581L157.318 145.534L157.042 145.384C154.023 143.837 145.867 142.535 136.463 150.434C136.04 150.79 135.409 150.735 135.054 150.312C134.699 149.89 134.753 149.258 135.176 148.903ZM254.819 120.169C264.152 120.169 272.085 122.071 277.697 124.519L278.233 124.759L278.324 124.805C278.762 125.061 278.944 125.612 278.73 126.083C278.515 126.554 277.981 126.779 277.501 126.617L277.405 126.579L276.896 126.352C271.551 124.021 263.893 122.169 254.819 122.169C254.267 122.169 253.819 121.721 253.819 121.169C253.819 120.616 254.267 120.169 254.819 120.169ZM378.135 45.1688C373.602 45.1692 370.277 45.2988 367.675 46.5487C365.164 47.7547 363.174 50.0947 361.612 54.9735C359.652 61.1004 358.533 69.8722 358.347 77.5057C358.254 81.3172 358.395 84.8064 358.768 87.5086C358.954 88.8614 359.196 89.9888 359.482 90.8494C359.78 91.7431 360.085 92.2165 360.311 92.41C361.57 93.4896 362.665 93.6895 364.012 93.574C364.729 93.5125 365.501 93.3619 366.431 93.1815C367.344 93.0042 368.38 92.8046 369.55 92.6746C373.078 92.2826 378.235 92.1573 382.402 93.199C383.425 93.4548 384.509 93.7731 385.573 94.0838C386.646 94.3971 387.703 94.7034 388.708 94.9471C389.716 95.1914 390.639 95.3649 391.441 95.4217C392.255 95.4793 392.863 95.4099 393.288 95.2401C394.353 94.8141 395.529 94.0856 396.526 92.201C397.553 90.2622 398.414 87.0545 398.661 81.6229C398.909 76.1672 398.785 69.5825 398.351 63.743C397.912 57.8526 397.166 52.8766 396.231 50.5399C395.424 48.5227 393.241 47.2525 389.867 46.4549C386.541 45.6686 382.399 45.4197 378.135 45.1688ZM138.819 35.6688C133.52 35.6688 129.209 37.2336 126.116 39.2557C122.983 41.3046 121.206 43.7465 120.789 45.411C119.83 49.2443 119.883 50.0777 120.318 66.6424C120.566 76.0717 122.281 81.5777 124.405 84.5213C125.455 85.9762 126.59 86.7867 127.691 87.1697C128.794 87.5532 129.935 87.534 131.037 87.2098C138.152 85.117 143.125 84.8434 147.368 84.786C151.615 84.7285 154.954 84.8757 159.045 83.7069C159.758 83.5029 160.386 82.9535 160.908 81.9344C161.437 80.9042 161.811 79.4776 162.03 77.7156C162.468 74.1973 162.261 69.6012 161.701 64.8113C160.729 56.4881 158.726 47.8106 157.423 43.6112C157.379 43.5222 157.349 43.4274 157.333 43.3299C157.17 42.817 157.021 42.3793 156.886 42.0281C156.305 40.5169 155.569 39.4049 154.663 38.5672C153.757 37.7293 152.634 37.122 151.214 36.6873C148.321 35.8016 144.352 35.6688 138.819 35.6688ZM285.372 5.0633C279.603 2.17874 274.311 1.67108 265.375 2.16779C259.772 2.4793 255.914 2.99272 253.233 5.61506C250.541 8.24902 248.817 13.2408 248.318 23.2196C247.818 33.2278 247.7 41.0141 248.436 46.409C248.804 49.1092 249.375 51.1175 250.156 52.4852C250.917 53.8167 251.843 54.4923 252.983 54.6824C255.83 55.1569 258.459 54.9248 261.25 54.5526C264.016 54.1836 266.984 53.6688 270.319 53.6688C276.89 53.6688 280.956 54.1763 286.016 55.1883C286.443 55.2738 286.789 55.2224 287.093 55.0819C287.409 54.935 287.738 54.6635 288.066 54.2254C288.738 53.3297 289.294 51.8977 289.721 50.0672C290.569 46.4318 290.819 41.6494 290.819 37.6697C290.819 33.6646 290.819 26.0896 290.075 19.1502C289.879 17.3169 289.629 15.5415 289.319 13.8963C289.009 13.608 288.909 13.1457 289.091 12.7488C288.868 11.7105 288.618 10.736 288.335 9.8465C287.928 8.56566 287.467 7.49428 286.952 6.6717C286.435 5.84492 285.901 5.32757 285.372 5.0633Z" fill="#6C6D6D"/>
</svg>
