<svg width="400" height="600" viewBox="0 0 400 600" fill="none" xmlns="http://www.w3.org/2000/svg">
<rect width="400" height="600" fill="white"/>
<path d="M322.808 171L84.8076 409" stroke="#F4F4F4" stroke-width="10" stroke-linecap="round" stroke-linejoin="round"/>
<path d="M267.003 249.17C297.519 261.828 314.689 293.455 314.99 339.307C321.246 345.674 324.01 357.704 321.312 370.433C318.83 382.149 312.365 391.434 304.884 395.385C290.824 432.196 263.684 459.273 233.635 459.273C203.288 459.273 175.91 432.047 161.975 394.643C155.048 390.348 149.177 381.47 146.839 370.433C146.774 370.127 146.714 369.822 146.655 369.516L156.382 359.79C156.305 362.378 156.536 365.218 157.174 368.229C158.042 372.327 159.572 376.18 161.598 379.371C163.362 382.15 165.413 384.313 167.528 385.625L170.604 387.532L171.871 390.932C175.079 399.542 179.05 407.57 183.673 414.793C188.227 421.907 193.324 428.1 198.822 433.199C209.736 443.321 221.774 448.672 233.635 448.672C239.476 448.672 245.379 447.361 251.18 444.777C256.995 442.187 262.686 438.338 268.096 433.337C273.553 428.291 278.629 422.164 283.183 415.126C287.793 407.998 291.775 400.08 295.018 391.591L296.441 387.863L299.963 386.003C302.12 384.864 304.335 382.702 306.198 379.915C308.403 376.617 310.056 372.576 310.977 368.228C313.121 358.109 310.659 350 307.465 346.749L304.452 343.682L304.424 339.377C304.332 325.427 302.576 312.797 299.205 301.838C295.989 291.385 291.3 282.451 285.267 275.285C279.37 268.281 272.113 262.895 263.7 259.276C262.102 258.589 260.459 257.964 258.771 257.4L267.003 249.17Z" fill="#F4F4F4"/>
<path d="M270.376 255.463L301.958 291.904L307.222 337.586C307.222 337.586 304.853 372.175 301.958 371.121C299.063 370.065 297.829 368.644 298.272 367.16C306.429 314.087 275.381 299.826 275.111 300.089C273.373 303.825 277.024 310.619 277.442 311.153C274.668 309.13 271.416 307.866 268.007 307.485C265.117 307.221 267.996 316.426 268.007 316.462C267.978 316.433 260.366 308.804 255.374 307.485C250.382 306.167 253.519 316.423 253.531 316.462C253.499 316.425 245.367 307.221 239.584 307.485C233.79 307.751 235.111 315.407 234.847 315.142C227.595 310.368 215.855 305.005 212.733 303.438L261.635 254.537L270.376 255.463ZM167.285 348.887C167.306 350.878 167.478 352.176 167.478 352.66C167.478 354.245 169.764 363.469 169.764 367.165C169.764 370.861 165.531 371.214 165.559 371.125C165.411 368.623 163.427 360.859 161.698 354.474L167.285 348.887ZM211.705 304.467C211.468 306.774 211.915 309.113 213.007 311.182C210.623 310.922 208.432 310.428 206.418 309.754L211.705 304.467Z" fill="#F4F4F4"/>
<path d="M201.822 213.697C217.875 213.697 232.542 217.46 245.532 224.06L237.992 231.6C227.023 226.532 214.883 223.697 201.822 223.697C151.878 223.697 120.191 259.016 108.903 302.969C103.884 322.51 102.997 343.44 106.305 363.288L97.76 371.832C92.7246 348.422 93.3254 323.417 99.216 300.481C111.266 253.564 145.965 213.697 201.822 213.697ZM201.359 196.014C217.91 196.014 238.666 200.373 258.414 211.178L251.018 218.575C233.662 209.649 215.691 206.014 201.359 206.014C179.05 206.014 147.973 215.443 124.042 239.383C100.291 263.145 83.143 301.645 89.2375 360.715C89.5204 363.462 87.523 365.918 84.7766 366.202C82.0304 366.484 79.5741 364.488 79.2902 361.742C72.9288 300.085 90.8167 258.477 116.97 232.313C142.944 206.329 176.644 196.014 201.359 196.014ZM201.822 232.36C212.971 232.36 223.099 234.153 232.198 237.394L224.239 245.353C217.38 243.41 209.909 242.36 201.822 242.36C176.478 242.36 156.631 254.339 142.912 272.651C129.114 291.068 121.564 315.883 121.332 340.972C121.31 343.361 121.354 345.747 121.465 348.127L112.177 357.415C111.559 351.927 111.281 346.396 111.332 340.88C111.58 313.995 119.647 287.027 134.909 266.655C150.251 246.177 172.91 232.36 201.822 232.36ZM202.696 250.799C207.833 250.853 212.686 251.383 217.258 252.334L208.48 261.113C206.559 260.925 204.587 260.819 202.566 260.798L201.822 260.794C182.575 260.794 166.887 271.122 155.909 286.746C147.319 298.973 141.786 314.246 139.926 329.666L129.233 340.36C129.388 319.557 135.891 297.844 147.727 280.997C160.091 263.399 178.556 250.794 201.822 250.794L202.696 250.799ZM186.91 282.682C178.93 286.641 172.543 293.372 167.736 301.83C167.724 301.851 167.712 301.871 167.7 301.892L150.394 319.199C152.295 311.306 155.17 303.701 159.041 296.89C167.677 281.697 181.541 270.106 200.725 268.868L186.91 282.682ZM82.0754 254.789C120.226 176.547 208.421 162.766 269.866 199.726L262.603 206.99C205.826 174.312 125.806 187.92 91.0637 259.172C89.8533 261.654 86.86 262.685 84.3781 261.475C81.8962 260.265 80.8655 257.271 82.0754 254.789ZM103.684 201.996C129.513 172.747 168.818 161.195 206.267 162.572C234.49 163.609 262.327 172.013 283.214 186.378L276.006 193.586C257.189 181.152 232.032 173.525 205.9 172.565C170.776 171.274 135.044 182.064 111.731 207.997L110.629 209.244C108.82 211.329 105.662 211.553 103.576 209.745C101.491 207.935 101.267 204.777 103.076 202.691L103.684 201.996ZM127.988 164.009C163.571 144.133 199.851 143.754 227.168 148.319C241.053 150.639 252.699 154.247 260.886 157.279C264.982 158.796 268.223 160.173 270.456 161.179C271.573 161.682 272.44 162.093 273.035 162.383C273.332 162.528 273.563 162.642 273.724 162.723C273.804 162.763 273.867 162.796 273.912 162.819C273.934 162.83 273.953 162.84 273.967 162.847L273.99 162.859C273.99 162.865 273.918 163.01 271.787 167.106L273.995 162.862C276.444 164.136 277.397 167.155 276.123 169.605C274.849 172.054 271.831 173.006 269.382 171.733V171.734L269.383 171.735C269.382 171.734 269.381 171.733 269.38 171.733C269.376 171.731 269.366 171.726 269.355 171.72C269.329 171.707 269.285 171.685 269.226 171.655C269.105 171.594 268.915 171.499 268.659 171.374C268.148 171.126 267.371 170.757 266.349 170.296C264.303 169.374 261.273 168.086 257.412 166.656C249.683 163.793 238.656 160.377 225.52 158.182C199.226 153.789 164.779 154.327 131.289 173.633L131.064 173.756C128.708 174.96 125.796 174.117 124.46 171.799C123.081 169.407 123.903 166.349 126.295 164.97L127.988 164.009ZM160.778 135.699C171.28 131.984 187.604 130.789 202.672 131.03C217.269 131.263 231.809 132.867 239.945 135.427L240.711 135.678L240.952 135.767C243.411 136.744 244.698 139.488 243.837 142.021C242.976 144.553 240.284 145.946 237.739 145.223L237.494 145.147L236.871 144.944C230.218 142.861 216.905 141.259 202.512 141.029C187.655 140.791 172.84 142.039 164.112 145.126C161.508 146.047 158.652 144.682 157.731 142.079C156.81 139.476 158.174 136.619 160.778 135.699Z" fill="#F4F4F4"/>
</svg>
