<svg width="520" height="653" viewBox="0 0 520 653" fill="none" xmlns="http://www.w3.org/2000/svg">
<path d="M54.3244 116.165C58.3081 111.524 61.9206 110.806 70.7862 111.58C77.2618 112.146 83.8384 113.616 85.9422 121.939C88.9259 133.743 88.3774 154.226 82.5033 161.297C79.9857 164.327 73.8372 160.765 67.5603 159.991C62.0121 159.307 54.9309 161.644 51.2617 159.975C43.9232 156.637 48.8831 121.743 54.3244 116.165Z" stroke="#636464" stroke-width="2" stroke-linecap="round"/>
<path d="M86.5 123.5C92.515 129.5 97.9886 137.029 95.7621 159.596C93.5357 182.164 92.9198 218.051 92.515 222.154C92.1101 226.257 90.689 250.287 90.4184 255.5C90.1478 260.713 90.4184 280.085 90.4184 283C90.4184 290.806 93.5 321 96.2112 335" stroke="#636464" stroke-width="2" stroke-linecap="round"/>
<path d="M50.0015 123.5C38.5015 131.5 34.0002 168.5 34.0015 176C34.0027 183.071 32.5 217 32.4998 229.5C32.4996 242.09 30.5 263.146 30.5 266.5C30.5 274 28.5 303.376 28.5 312.5C28.5 322.5 27.2696 337.458 26 351C24.5 367 23.5185 375 20 394C15.8333 416.5 15.5 443.482 15.5 450.5C15.5 463.5 18.4976 523 23.4976 544C28.4976 565 36 588.434 41.9976 603C49.6152 621.5 62.4976 644 68.4976 652" stroke="#636464" stroke-width="2" stroke-linecap="round"/>
<path d="M157.088 34.9171C146.17 33.5794 138.431 39.1799 136.952 43.0285C135.473 46.8772 135.417 47.8836 133.841 64.3082C132.027 83.2279 137.893 87.9766 143.138 87.1079C157.535 84.7233 162.624 88.416 171.356 87.039C180.088 85.6619 176.787 50.9314 175.096 44.1756C173.405 37.4198 168.007 36.2547 157.088 34.9171Z" stroke="#636464" stroke-width="2" stroke-linecap="round"/>
<path d="M135.5 47C122.329 54.0015 120.929 65.6449 118.5 82.5002C116.072 99.3555 115.394 110.586 113.5 130C111.5 150.5 110.414 173.042 109.5 180C108.586 186.958 106.024 229.952 105.5 237.5C104.976 245.048 104.015 271.103 102.5 281C100.985 290.897 99.4769 325.605 95 340C91.4185 351.516 89.0939 357.761 88.5 359" stroke="#636464" stroke-width="2" stroke-linecap="round"/>
<path d="M176 49C187.879 58.1727 191.622 71.8368 190.207 88.3443C188.454 108.794 184.517 136.001 183.5 151C182.046 172.451 180.5 179.242 180.5 207.5C180.5 226 180.781 247.952 180.5 257.5C180.219 267.048 180.893 286.224 182.5 293C183.786 298.421 182.812 299.795 185 308.5" stroke="#636464" stroke-width="2" stroke-linecap="round"/>
<path d="M214.613 22.3923C216.32 2.44027 222.271 1.26657 233.38 1.04295C242.392 0.861554 247.871 1.55617 253.761 4.7667C259.651 7.97722 258.855 30.4636 258.572 38.4586C258.288 46.4536 256.882 57.9109 251.921 56.7346C246.959 55.5582 242.979 54.9164 236.483 54.6863C229.987 54.4562 224.92 56.2784 218.959 55.0667C212.998 53.8549 212.905 42.3444 214.613 22.3923Z" stroke="#636464" stroke-width="2" stroke-linecap="round"/>
<path d="M258 16C274.5 25 272 46 272 49.5C272 53 270.5 81 270.5 102.5C270.5 129.169 269 147.5 269 160.5C269 172.549 266.5 220 266.5 236C266.5 247.579 267 277.5 270.197 308C273.55 339.989 276.333 343.333 276 343.5" stroke="#636464" stroke-width="2" stroke-linecap="round"/>
<path d="M215.822 12.5C197.502 23 201.822 60 200.322 83.5C198.822 107 199.502 125 199.002 133C198.502 141 198 159.5 197 164C196 168.5 194.5 196.5 194.5 201C194.5 205.5 192 228 191.5 232.5C191 237 187.5 273.5 187 282C186.5 290.5 182.5 344.5 182 348" stroke="#636464" stroke-width="2" stroke-linecap="round"/>
<path d="M330.01 52.4517C327.581 47.6455 319.07 47.8899 310.559 48.1343C301.593 48.9204 296.371 49.8222 294.043 60.1228C291.15 72.9244 292.661 95.8802 296.41 98.563C299.623 100.863 301.976 99.0787 306.415 98.1875C309.847 97.4987 314.839 96.947 318.911 97.5937C322.983 98.2405 328.139 99.7961 330.542 98.5816C332.945 97.367 335.715 94.6145 335.252 83.6129C334.79 72.6112 332.44 57.2578 330.01 52.4517Z" stroke="#636464" stroke-width="2" stroke-linecap="round"/>
<path d="M332 58C344.5 62 349 81 350 87.5C351 94 353 134.5 353 137C353 148.331 353.5 174.5 353 180.5C352.5 186.5 353 209.5 353 215.5C353 226.244 353 243.669 353 251.5C353 259.066 353 283 353 307.5C353 331.687 355.53 347.656 358.5 363C361.5 378.5 362.5 385.2 367 400.5C371.5 415.8 372.5 417.5 374 427C375.737 438 376.5 444.5 376.5 456.5C376.5 468.5 376.5 476 374 491" stroke="#636464" stroke-width="2" stroke-linecap="round"/>
<path d="M292.681 62C280.681 64.5 285.5 102.462 285.5 115.5C285.5 129.5 285.5 156.177 285.5 166C285.5 176.5 285 195.5 284 211.5C283 227.5 281.5 259.5 279 267.5C276.5 275.5 272.5 304.5 270 314.5" stroke="#636464" stroke-width="2" stroke-linecap="round"/>
<path d="M496.319 323.169C494.819 323.169 485.319 321.169 477.319 320.669C469.319 320.169 457.319 323.169 454.319 319.669C451.319 316.169 453.319 298.169 455.819 281.169C457.08 272.596 457.959 268.092 459.868 265.669M459.868 265.669C461.744 263.287 464.615 262.917 469.819 262.669C480.319 262.169 491.819 262.669 499.819 268.169C499.986 282.669 499.519 317.169 496.319 339.169C492.319 366.669 482.319 423.669 479.819 442.669C477.319 461.669 467.308 503.713 463.319 519.669C456.819 545.669 441.573 574.88 406.819 604.669C389.319 619.669 376.819 636.169 372.819 642.669M459.868 265.669C452.319 270.669 440.819 276.669 430.819 311.669C420.819 346.669 425.819 355.169 420.319 378.169C415.133 399.857 394 414 374.5 426.5" stroke="#636464" stroke-width="2" stroke-linecap="round"/>
<path d="M243.319 395.169C241.819 439.669 240.719 532.769 248.319 549.169M180.319 434.169C183.319 461.002 191.619 517.269 200.819 527.669" stroke="#636464" stroke-width="2" stroke-linecap="round"/>
<path d="M221.5 124C231 124 239 126 244.5 128.5M211 214C230.2 208.8 240 211.833 244.5 214M304 234.169C321 235.169 330 242.169 332 244.169M135.5 148.669C145.5 140.269 155.833 144.667 159 146.5" stroke="#636464" stroke-width="2" stroke-linecap="round"/>
</svg>
